<svg width="281" height="427" viewBox="0 0 281 427" fill="none" xmlns="http://www.w3.org/2000/svg">
<path d="M109.091 423.287L74.627 423.977C69.392 424.172 64.2127 423.119 59.8805 420.979C56.1378 418.96 54.4209 416.23 55.1737 413.489L61.9556 388.77C63.2337 384.106 71.113 380.581 80.6889 380.389L99.722 380.008C109.298 379.816 117.433 383.021 119.065 387.626L127.717 412.036C128.677 414.743 127.17 417.537 123.587 419.703C119.424 422.013 114.333 423.272 109.091 423.287Z" fill="#3F3D56"/>
<path d="M208.091 423.287L173.627 423.977C168.392 424.172 163.213 423.119 158.88 420.979C155.138 418.96 153.421 416.23 154.174 413.489L160.956 388.77C162.234 384.106 170.113 380.581 179.689 380.389L198.722 380.008C208.298 379.816 216.433 383.021 218.065 387.626L226.717 412.036C227.677 414.743 226.17 417.537 222.587 419.703C218.424 422.013 213.333 423.272 208.091 423.287Z" fill="#3F3D56"/>
<path d="M108.006 390V172.989L107.237 127.134L107 81L57 173L59 390H108.006Z" fill="#E6E6E6"/>
<path d="M223 390V170L172 81V390H223Z" fill="#E6E6E6"/>
<path d="M104.122 174L92.133 205L92.1331 358.701L107.122 363L104.122 174Z" fill="#CCCCCC"/>
<path d="M168.734 171.618L181.995 205.034L185.974 358.742L170.995 363.461L168.734 171.618Z" fill="#CCCCCC"/>
<path d="M172 81H107L107.692 390H172V81Z" fill="#E6E6E6"/>
<path d="M138 390V131H142V390H138Z" fill="#3F3D56"/>
<path d="M57 173L8.86767 251.19L0.998047 424L59 390L57 173Z" fill="#E6E6E6"/>
<path d="M49 187L61.5 165V390.797H58.9029L56.3058 392.242" fill="#3F3D56"/>
<path d="M223 170L275.475 257.847L280.094 426.136L223 390V170Z" fill="#E6E6E6"/>
<path d="M213 152.5L225.5 174V391.577L223 390H220" fill="#3F3D56"/>
<path d="M107 81V67L139.999 0.999878L172 67V81L201 131.5H79L107 81Z" fill="#3F3D56"/>
<path d="M138 131V5.05052L139.844 -1.88017e-05L142 5.05052V131H138Z" fill="#E6E6E6"/>
</svg>
