<svg width="460" height="429" viewBox="0 0 460 429" fill="none" xmlns="http://www.w3.org/2000/svg">
<path d="M414.992 225.364C414.997 250.226 410.104 274.845 400.592 297.815C391.08 320.786 377.136 341.657 359.556 359.237C341.976 376.816 321.105 390.761 298.135 400.272C275.165 409.784 250.546 414.677 225.684 414.672C121.133 414.672 36.376 329.915 36.376 225.364C36.3579 205.028 39.618 184.821 46.0307 165.522C58.6208 127.831 82.7408 95.0515 114.98 71.8187C147.219 48.5859 185.946 36.0755 225.684 36.0565C259.956 36.0446 293.587 45.3396 322.989 62.9494C352.39 80.5591 376.458 105.822 392.622 136.043C396.63 143.499 400.126 151.218 403.087 159.149C403.497 160.253 403.896 161.357 404.285 162.472V162.483C406.021 167.384 407.549 172.376 408.871 177.459C412.948 193.101 415.005 209.2 414.992 225.364Z" fill="#D8CEDE"/>
<path d="M204.972 97.6407C196.465 93.0401 187.019 90.4431 177.355 90.0477C167.692 89.6524 158.065 91.4691 149.211 95.3593C141.414 98.7523 133.205 104.839 130.604 115.83C141.123 109.623 154.74 119.431 157.446 135.166L156.815 135.34C155.385 146.239 158.576 158.105 164.755 164.863C165.566 157.843 170.182 153.065 174.722 150.081C179.262 147.097 184.284 144.929 187.749 139.799C191.857 133.718 192.9 124.83 194.532 116.722C196.164 108.614 199.26 99.8999 204.972 97.6407Z" fill="black"/>
<path d="M146.09 190.385C143.177 194.76 139.286 197.505 135.794 200.923C132.313 204.351 129 208.979 128.306 214.921C127.864 218.728 128.548 222.598 128.453 226.448C128.359 230.297 127.076 234.63 124.457 235.587C120.324 237.08 117.168 229.403 112.92 228.867C109.543 228.446 106.504 233.757 107.482 238.364C108.46 242.97 113.056 245.01 115.696 242.002C118.083 246.009 116.401 253.277 112.814 254.507C112.436 257.031 112.057 259.545 111.689 262.069C102.623 255.727 93.4629 249.28 85.7539 239.994C77.1801 229.753 71.8623 217.184 70.483 203.899C69.4839 193.224 70.9668 181.014 66.0659 172.8C62.1429 166.227 55.4119 164.775 49.354 165.186C48.2498 165.259 47.135 165.385 46.0307 165.522C49.6033 154.792 54.1407 144.408 59.5872 134.497C60.8198 133.968 61.9651 133.255 62.9842 132.383C68.6214 127.597 71.1245 117.911 75.6995 111.212C75.994 110.78 76.299 110.36 76.6144 109.95C81.2946 103.839 87.5628 100.695 93.6207 97.7708C107.03 91.2608 120.828 84.6665 134.984 85.571L130.956 85.9601C126.255 99.1276 121.551 112.295 116.842 125.462C116.127 127.482 115.405 129.504 114.676 131.531C112.005 139.019 109.249 146.991 109.659 155.373C109.901 160.337 111.626 165.638 114.907 167.342C117.968 168.919 121.312 166.984 124.267 165.07C125.519 164.27 126.76 163.471 128.012 162.661C132.502 159.769 137.477 156.803 142.22 158.738C146.564 160.505 149.771 166.405 150.381 172.768C150.941 178.954 149.432 185.149 146.09 190.385Z" fill="black"/>
<path d="M121.036 133.363C119.643 136.494 119.107 140.67 120.371 143.91C121.662 147.219 124.39 148.714 126.903 149.959L134.15 153.551C136.561 154.746 139.159 155.953 141.617 154.97C144.582 153.784 146.637 149.137 146.105 144.822C145.539 140.231 142.645 137.073 139.969 134.384C136.223 130.62 132.478 126.857 128.732 123.093L126.621 125.678C124.338 127.905 122.45 130.504 121.036 133.363Z" fill="black"/>
<path d="M376.142 182.444C379.402 183.212 382.662 183.979 385.923 184.747C385.355 195.759 379.896 205.95 372.577 209.641C369.527 211.177 366.13 211.745 363.605 214.616C361.323 217.224 360.166 221.284 359.104 225.164C357.243 231.938 355.381 238.711 353.519 245.483C351.521 252.782 348.955 260.891 343.76 263.52C339.3 265.782 334.2 263.015 330.771 258.377C327.342 253.739 325.25 247.503 323.22 241.424C323.346 248.05 320.264 254.549 315.9 256.852C311.525 259.156 306.203 257.073 303.279 251.931C301.176 248.239 300.303 243.369 298.242 239.625C296.18 235.881 291.858 233.736 289.607 237.249C288.124 239.583 288.313 243.159 287.577 246.125C286.431 250.731 282.96 253.624 279.521 253.876C276.093 254.129 272.748 252.151 269.877 249.469C263.956 243.916 259.591 235.103 257.898 225.312C257.151 220.947 256.941 216.193 258.235 212.102C259.528 208.011 262.652 204.856 265.754 205.634C267.795 201.322 263.767 195.601 260.138 196.106C256.499 196.61 253.649 200.512 250.662 203.51C247.686 206.507 243.521 208.684 240.524 205.708C240.545 208.474 238.294 210.304 236.348 210.072C234.413 209.852 232.688 208.295 230.911 207.191C224.043 202.91 215.325 205.75 210.445 213.848C213.495 200.87 217.964 185.978 227.335 182.928C231.164 181.676 235.339 182.707 238.957 180.54C245.362 176.702 246.655 162.198 241.123 156.214C241.828 161.872 241.691 168.477 238.704 172.347C235.717 176.218 229.449 173.694 229.828 167.972C228.965 171.916 224.674 172.516 222.697 169.487C220.709 166.458 220.878 161.504 222.287 157.886C223.696 154.268 226.094 151.671 228.418 149.178C233.414 143.825 238.483 138.409 244.268 135.043C250.063 131.678 256.752 130.542 262.557 133.886C265.618 135.653 268.31 138.598 271.433 140.155C274.557 141.722 278.522 141.522 280.594 137.862C282.918 133.781 281.824 127.723 282.687 122.623C284.233 113.609 293.246 109.392 298.242 115.345C294.508 114.388 290.648 118.805 290.185 124.158C289.712 129.511 292.415 134.917 296.033 136.537C302.112 139.229 308.064 132.456 312.661 126.188C317.456 119.625 322.259 113.066 327.069 106.51C327.837 105.394 328.699 104.346 329.646 103.376C331.152 101.908 333.16 101.067 335.263 101.024C337.367 100.981 339.407 101.739 340.973 103.145C345.831 107.11 348.114 115.24 352.1 120.835C357.884 128.964 366.54 130.942 374.596 132.519C380.601 133.687 386.61 134.861 392.622 136.042C396.63 143.498 400.126 151.218 403.087 159.149C392.906 163.471 383.514 171.559 376.142 182.444Z" fill="black"/>
<path d="M395.556 308.986C391.051 318.135 385.81 326.904 379.886 335.205C376.1 333.585 372.03 336.478 368.485 339.191C364.783 342.031 360.335 344.797 356.538 342.21C352.657 339.559 351.406 332.145 352.636 326.266C353.867 320.397 356.937 315.727 359.914 311.289C363.069 306.578 366.445 301.687 370.831 299.857C375.227 298.027 380.874 300.614 382.158 306.862L385.271 306.756C383.525 304.358 384.44 299.394 386.785 298.521C389.488 297.501 391.833 301.214 393.432 304.495C394.147 305.978 394.873 307.472 395.556 308.986Z" fill="black"/>
<path d="M267 306.193C252.457 322.702 235.542 338.523 216.422 353.503C204.201 350.58 171 310.349 179.625 360.695C167.676 365.819 153.317 370.81 141.063 366.141C179.625 337.372 124.498 347.98 128.47 337.372C118.863 345.38 132.441 326.783 128.47 337.372C138.653 328.87 101.5 258 200.5 258C214.689 254.698 219.612 291.087 223.754 302.359L233.802 302.169C228.167 297.843 231.12 288.885 238.69 287.31C247.414 285.47 254.984 292.168 260.143 298.09C262.451 300.765 264.793 303.46 267 306.193Z" fill="black"/>
<path d="M210.208 178.499C210.832 179.074 211.414 179.692 211.95 180.349C212.505 181.306 212.789 182.396 212.77 183.502C212.751 184.608 212.431 185.688 211.843 186.625C212.649 186.579 213.437 186.367 214.157 186.001C214.877 185.635 215.513 185.124 216.025 184.5C217.246 183.109 218.32 181.596 219.231 179.984C219.913 178.871 220.639 177.367 220.176 176.045C219.86 175.143 219.112 174.758 218.588 174.079C217.758 173.004 217.552 171.296 217.122 169.82C216.193 166.632 213.969 164.288 211.555 163.953L211.89 164.017C210.881 164.363 210.177 165.964 210.4 167.405C210.603 168.718 211.447 169.807 211.363 171.146C211.242 173.071 209.319 173.974 209.2 175.899C209.181 176.865 209.543 177.799 210.208 178.499Z" fill="black"/>
<path d="M198.744 145.791C198.753 145.788 198.763 145.788 198.773 145.785C198.979 145.598 199.17 145.394 199.344 145.177L198.744 145.791Z" fill="black"/>
<path d="M200.75 154.826C202.23 153.874 203.056 151.243 202.567 149.041C202.081 146.852 200.36 145.381 198.773 145.785C198.313 146.252 197.742 146.594 197.113 146.779C196.484 146.964 195.818 146.986 195.178 146.844C194.197 146.591 193.12 145.941 192.269 146.68C191.783 147.232 191.442 147.897 191.278 148.615C190.964 149.581 190.649 150.548 190.334 151.515C190.184 151.861 190.145 152.245 190.222 152.614C190.282 152.762 190.38 152.892 190.505 152.991C190.63 153.091 190.778 153.156 190.936 153.182C192.826 153.739 194.715 154.296 196.605 154.853C197.982 155.259 199.469 155.65 200.75 154.826Z" fill="black"/>
<path d="M343.406 279.557C342.533 278.127 341.659 276.697 340.786 275.267C339.928 273.611 338.755 272.138 337.333 270.931C337.02 270.669 336.658 270.473 336.268 270.353C335.878 270.233 335.468 270.192 335.063 270.232C334.657 270.273 334.263 270.394 333.905 270.589C333.547 270.784 333.231 271.049 332.977 271.368L333.083 272.185C335.074 274.683 337.18 277.457 337.685 281.165C337.885 282.626 337.815 284.139 337.99 285.607C338.165 287.075 338.661 288.597 339.608 289.23C340.984 290.149 342.599 288.794 343.578 287.141C344.453 285.783 344.845 284.17 344.692 282.562C344.474 281.483 344.036 280.46 343.406 279.557Z" fill="black"/>
<path d="M382.282 224.94C382.534 223.283 382.787 221.627 383.04 219.97C383.45 218.151 383.501 216.268 383.19 214.429C383.119 214.028 382.969 213.644 382.748 213.301C382.527 212.958 382.24 212.663 381.903 212.433C381.567 212.203 381.187 212.042 380.788 211.96C380.388 211.879 379.976 211.878 379.576 211.958L379.132 212.652C379.046 215.845 378.871 219.324 376.87 222.486C376.081 223.732 375.054 224.845 374.242 226.08C373.431 227.316 372.83 228.8 373.147 229.894C373.608 231.483 375.716 231.486 377.529 230.852C379.073 230.377 380.412 229.396 381.331 228.067C381.859 227.101 382.182 226.036 382.282 224.94Z" fill="black"/>
<path d="M357.109 281.419C357.536 280.191 356.92 278.783 356.789 277.426C356.727 275.673 357.191 273.942 358.123 272.457C359.049 271.055 359.75 269.518 360.201 267.9C360.392 267.163 360.357 266.386 360.102 265.669C359.813 265.019 359.112 264.723 358.711 265.237L359.57 265.791C358.409 265.584 357.217 265.642 356.082 265.96C355.434 266.208 354.855 266.608 354.395 267.127C353.935 267.646 353.606 268.268 353.437 268.941C353.296 269.989 353.064 271.024 352.744 272.033C352.231 273.087 351.239 273.438 350.615 274.363C350.19 275.183 349.975 276.096 349.99 277.02C350.005 277.944 350.25 278.849 350.703 279.655C351.486 280.972 352.731 281.952 354.197 282.402C355.246 282.779 356.629 282.799 357.109 281.419Z" fill="black"/>
<path d="M381.511 288.781C381.891 289.769 382.399 290.702 383.023 291.556C384.191 292.733 385.779 292.01 387.196 291.724C388.482 291.521 389.799 291.669 391.008 292.154C392.216 292.639 393.271 293.441 394.06 294.477C393.511 291.736 392.311 289.167 390.563 286.985C388.814 284.804 386.568 283.074 384.012 281.94C380.671 280.578 377.152 280.447 373.678 280.324L373.078 280.478C374.607 284.93 379.409 284.83 381.511 288.781Z" fill="black"/>
<path d="M278.159 297.886L278.168 297.905C278.226 297.793 278.284 297.681 278.342 297.569L278.159 297.886Z" fill="black"/>
<path d="M274.457 305.052C273.65 306.517 272.955 308.042 272.38 309.614C271.619 312.159 271.114 314.774 270.875 317.42C270.687 318.925 270.629 320.846 271.571 321.579C271.842 321.759 272.169 321.834 272.491 321.79C272.813 321.746 273.108 321.587 273.32 321.342C273.844 320.788 274.272 320.151 274.588 319.457C276.441 316.266 277.879 312.853 278.869 309.298C279.771 305.554 279.762 301.147 278.168 297.906C276.931 300.288 275.694 302.67 274.457 305.052Z" fill="black"/>
<path d="M238.744 114.149C239.332 114.724 240.076 115.114 240.883 115.272C241.69 115.429 242.526 115.347 243.287 115.036C244.862 114.347 246.308 113.392 247.56 112.213C248.597 111.446 249.477 110.486 250.151 109.387C250.523 108.73 250.761 108.006 250.852 107.256C250.942 106.507 250.885 105.747 250.681 105.02C250.096 103.308 248.611 102.735 247.301 102.346C245.203 101.724 243.106 101.102 241.008 100.48L242.525 99.1127C240.964 98.2749 239.237 99.8297 238.262 101.755C237.636 103.012 237.2 104.354 236.967 105.739C236.445 108.761 236.956 112.359 238.744 114.149Z" fill="black"/>
<path d="M275.775 101.718C276.366 102.37 277.183 102.772 278.06 102.843C278.937 102.915 279.808 102.65 280.497 102.102C281.09 101.657 281.582 101.092 281.942 100.443C282.302 99.7952 282.521 99.0785 282.586 98.3399C282.734 96.6901 281.919 94.8563 280.754 94.7139L281.02 93.1692C278.776 92.7639 276.014 92.6827 274.811 95.4082C274.406 96.4523 274.281 97.5845 274.45 98.6917C274.619 99.799 275.076 100.842 275.775 101.718Z" fill="black"/>
<path d="M111.412 128.848C118.165 128.848 123.639 123.374 123.639 116.621C123.639 109.868 118.165 104.393 111.412 104.393C104.658 104.393 99.184 109.868 99.184 116.621C99.184 123.374 104.658 128.848 111.412 128.848Z" fill="black"/>
<path opacity="0.2" d="M121.529 107.86C122.905 108.687 124.105 109.777 125.06 111.068C126.015 112.359 126.707 113.825 127.095 115.383C127.483 116.941 127.561 118.561 127.324 120.149C127.086 121.737 126.539 123.262 125.712 124.639C124.885 126.015 123.794 127.215 122.504 128.17C121.213 129.125 119.747 129.817 118.189 130.205C116.631 130.594 115.011 130.671 113.423 130.434C111.835 130.197 110.309 129.649 108.933 128.822C111.767 129.452 114.733 129.053 117.3 127.697C119.867 126.34 121.867 124.114 122.943 121.418C124.019 118.721 124.1 115.729 123.172 112.979C122.243 110.228 120.366 107.897 117.876 106.403C119.164 106.689 120.398 107.181 121.529 107.86Z" fill="#231F20"/>
<path d="M398.46 375C391.678 375 384.245 374.497 376.16 373.491C334.344 368.281 280.18 350.167 223.645 322.486C167.11 294.805 114.958 260.864 76.7971 226.916C58.2078 210.379 43.9405 194.725 34.3922 180.388C24.283 165.211 19.8611 151.981 21.2488 141.069C23.9527 119.809 50.8915 109.158 70.5 109L63.5 119C36.5723 119.217 24.6959 126.735 22.7779 141.818C20.3345 161.028 40.2611 191.018 77.4478 224.1C115.525 257.973 167.581 291.849 224.026 319.487C280.472 347.123 334.536 365.207 376.26 370.406C417.007 375.484 441.779 367.378 444.222 348.168C446.251 332.218 436.31 311.215 410 284.5L412 277.5C431.117 296.912 448.6 326.515 445.751 348.917C444.364 359.829 437.292 367.431 424.734 371.51C417.576 373.835 408.783 375 398.46 375Z" fill="white" stroke="white" stroke-width="10"/>
</svg>
