<svg xmlns="http://www.w3.org/2000/svg" width="99.565" height="41.175" viewBox="0 0 99.565 41.175">
  <g id="disney" transform="translate(542.165 -88.005)">
    <path id="Path_57" data-name="Path 57" d="M52.921,62.176a3.02,3.02,0,0,1,1.836.734,2.51,2.51,0,0,1,.551,2.645c-1.285,2.644-4.34,4.411-6.427,4.995a7.254,7.254,0,0,1-3.967-.147c-.551.33-1.016,1.4-1.69.955-.974-.761-.131-1.952-.693-2.8-.116-.174-.408-.187-.555-.471-.772-1.69.184-3.306,1.248-4.591,1.775-1.981,6.869-4.188,9.7-1.322ZM47.008,63.5A4.875,4.875,0,0,0,44.29,64.82c-.606.707-.991,1.4-.624,2.13,1.286-.955,1.91-2.277,3.343-3.085C47.008,63.718,47.228,63.608,47.008,63.5ZM53,63.866c-2.535-.221-4.445,1.69-6.244,3.526-.11.294-.771.624-.257.955A8.335,8.335,0,0,0,53,66.252a1.627,1.627,0,0,0,.625-1.763A1.3,1.3,0,0,0,53,63.866ZM74.958,74.811c1.176,2.865,2.167,7.382,0,10.137-.588.661-1.616,1.27-2.277.771-2.425-1.946-3.452-4.738-4.958-7.236-.22-.11-.22.184-.33.294-.551,2.534.477,5.84-1.248,7.823a1.322,1.322,0,0,1-1.506-.881c-.845-2.608.036-5.326.256-7.933.515-1.322.735-2.865,1.874-3.857,1.836.734,2.718,2.792,3.782,4.3a37.6,37.6,0,0,0,2.277,3.452c.771-.33.392-1.338.368-1.947a47.882,47.882,0,0,0-1.581-6.868c-.036-.588-.366-1.579.257-1.947C73.527,71.652,74.223,73.378,74.958,74.811Zm-11.092-.882a1.526,1.526,0,0,1-.809,1.322c-3.526.551-7.456.22-10.761,1.322-.11.4.367.477.624.588,2.827.441,5.8.551,8.558,1.249,1.457.37,1.984,2.094,2.094,3.526A3.752,3.752,0,0,1,62.1,85.2a9.96,9.96,0,0,1-9.623.074,3.721,3.721,0,0,1-2.13-2.718,2.2,2.2,0,0,1,1.065-2.02,9.7,9.7,0,0,1,8.191.881c.146.735-.649.695-1.03.955-2.535,1.469-4.444-1.652-6.795-.515-.33.22-.569.835-.184,1.029,2.9,1.286,6.134.367,9-.441.33-.11.735-.441.771-.771-.11-1.176-1.432-1.432-2.277-1.763a55.189,55.189,0,0,0-7.933-.881,1.938,1.938,0,0,1-1.322-.881,2.988,2.988,0,0,1,.367-2.828c3.415-3.012,8.594-2.754,12.928-1.947.294.108.625.218.735.549Zm-16.05,1.4a89.657,89.657,0,0,1,.441,10.5c-.073.477-.624.588-.991.771a1.842,1.842,0,0,1-1.579-.33c-.845-1.36-.551-3.2-.624-4.848.11-2.607.073-5.435.808-7.86.14-.352.551-.661.881-.441a2.277,2.277,0,0,1,1.065,2.2Zm40.806-.514c.177.3.361.756,0,.955-1.653.734-3.893.4-5.8.624a1.925,1.925,0,0,0-.735,1.836c.185.11.349.278.552.257,1.174.074,2.938-.551,3.71.551.188.328-.026,1.552-.551,1.579-1.433.185-3.79-.18-4.482.185-.881.588-.808,1.726-1.139,2.645.625.4,1.279-.01,2.02-.111A11.776,11.776,0,0,1,86.418,83c.257.477.625.992.367,1.579-2.315,1.836-5.3,3.719-8.484,2.387-1.194-.535-1.726-2.351-1.322-3.892.257-1.1,1.395-2.167.7-3.343a.874.874,0,0,1,.625-1.065c1.212,0,.954-1.506,1.579-2.2-.7-.771-2.46-.734-2.277-2.277a8.947,8.947,0,0,1,2.827-.441,22.244,22.244,0,0,1,6.8-.441C87.667,73.393,88.255,74.26,88.623,74.811ZM36.173,66.436c3.389,2.77,7.787,7.493,7.236,12.928-.661,4.3-5.216,7.53-9.072,8.558a25.667,25.667,0,0,1-12.268.11c-.257.7-.514,1.542-1.322,1.836a1.724,1.724,0,0,1-1.579-.257c-1.138-1.065-.22-3.122-1.873-3.783A16.982,16.982,0,0,1,8.92,78.484a1.973,1.973,0,0,1,.441-1.836c2.535-2.02,5.73-2.828,8.925-3.453.184.073.11-.184.257-.257A26.121,26.121,0,0,1,19.5,66.51a.574.574,0,0,1,.808-.184c2.02,1.542,1.065,4.445,1.947,6.538,3.857.184,7.713.367,10.761,2.535a3.344,3.344,0,0,1,.955,3.379,2.809,2.809,0,0,1-2.387,1.652c-.661,0-1.91.064-1.836-.44s2.247-1.331,1.579-2.021c-.959-.99-5.76-1.579-8.735-1.947-.367-.073-.7.037-.7.441a44.27,44.27,0,0,0,.184,8.558.658.658,0,0,0,.441.44c5.252.845,10.8.367,14.912-2.644a6.3,6.3,0,0,0,2.2-6.1C37.973,70.073,31.031,66.069,25.338,63.5A40.176,40.176,0,0,0,7.084,60.156c-1.047.077-2.706.438-2.718.808s1.879.254,1.652.955-2.148.285-2.718.11-.514-.992-.367-1.506c1.433-2.534,5.43-2.739,7.236-2.828a40.761,40.761,0,0,1,26,8.741Zm-18,9.843a22.812,22.812,0,0,0-7.566,1.175c-.477.184-1.065.7-.7,1.322a12.161,12.161,0,0,0,3.6,3.085,13.845,13.845,0,0,0,4.518,1.91,42.629,42.629,0,0,0,.33-7.2c-.147-.073,0-.22-.184-.294Zm75.918-3.343c-.11,3.2-3.086,5.179-3.086,8.374.11.11.185.257.33.185,2.388-2.608,4.738-6.318,8.228-7.419a2.5,2.5,0,0,1,2.094,1.322,8.024,8.024,0,0,1-.771,8.044c-1.744,2.163-4.776,4.334-8.227,3.966A47.107,47.107,0,0,0,89.687,98.5c-.294.771-.991.073-1.432-.073-2.975-2.351-.532-8.573-.33-9.367s1-2.66,1.58-4.224c-1.4-2.5-.515-5.509.624-7.823a15.6,15.6,0,0,1,3.527-4.26.5.5,0,0,1,.439.184Zm5.914,3.967c-.441-.073-.625.515-.991.625a20.475,20.475,0,0,0-4.224,6.1c1.139.147,2.094-.588,3.086-.991a5.372,5.372,0,0,0,2.644-4.848c-.074-.332-.368-.589-.515-.882Z" transform="translate(-545 30.322)" fill="#fff"/>
  </g>
</svg>
