<svg xmlns="http://www.w3.org/2000/svg" width="323.826" height="421.89" viewBox="0 0 323.826 421.89">
  <g id="Group_1" data-name="Group 1" transform="translate(-1062.414 -334.927)">
    <g id="icons8-stormtrooper-480" transform="translate(1055.494 330.927)">
      <path id="Path_1" data-name="Path 1" d="M49.645,54.59H39.623A5.624,5.624,0,0,1,34,48.967V23.628A5.625,5.625,0,0,1,39.623,18H49.645a5.624,5.624,0,0,1,5.623,5.623V48.962A5.625,5.625,0,0,1,49.645,54.59Z" transform="translate(88.108 45.551)" fill="#e0e0e0"/>
      <path id="Path_2" data-name="Path 2" d="M24.645,54.59H14.623A5.624,5.624,0,0,1,9,48.967V23.628A5.625,5.625,0,0,1,14.623,18H24.645a5.624,5.624,0,0,1,5.623,5.623V48.962A5.625,5.625,0,0,1,24.645,54.59Z" transform="translate(6.766 45.551)" fill="#e0e0e0"/>
      <rect id="Rectangle_2" data-name="Rectangle 2" width="119.103" height="72.312" transform="translate(20.02 63.551)" fill="#e0e0e0"/>
      <path id="Path_3" data-name="Path 3" d="M32.8,75.4l20.294,9.158L66,55.946a22.263,22.263,0,0,0-11.14-29.452h0Z" transform="translate(84.2 73.188)" fill="#bdbdbd"/>
      <path id="Path_4" data-name="Path 4" d="M129.1,59.3H10A55.3,55.3,0,0,1,65.3,4h8.507a55.3,55.3,0,0,1,55.3,55.3Z" transform="translate(10.02 0)" fill="#e0e0e0"/>
      <path id="Path_5" data-name="Path 5" d="M43.428,32.02a29.621,29.621,0,0,1,38.164,0l30.5,25.688L91.261,77.892,19.974,65.407l-7.81-7.065Z" transform="translate(17.061 68.512)" fill="#bdbdbd"/>
      <path id="Path_6" data-name="Path 6" d="M87.3,12.819A55.011,55.011,0,0,1,99.365,38.005a8.908,8.908,0,0,1-8.852,10.421H18.431A8.432,8.432,0,0,0,10,56.849v.089H129.1A55.284,55.284,0,0,0,92.917,5.061C88.11,3.291,84,8.91,87.3,12.819Z" transform="translate(10.02 2.359)" fill="#bdbdbd"/>
      <path id="Path_7" data-name="Path 7" d="M129.1,18H10v5.9a46.616,46.616,0,0,0,4.186,19.312h0a15.678,15.678,0,0,0,20.847,7.912L60.47,35a21.48,21.48,0,0,1,18.172,0l25.433,16.121a15.7,15.7,0,0,0,20.868-7.967h0a51.694,51.694,0,0,0,4.16-20.316Z" transform="translate(10.02 45.551)" fill="#f5f5f5"/>
      <path id="Path_8" data-name="Path 8" d="M42.1,75.433,21.806,84.591,8.9,55.976a22.263,22.263,0,0,1,11.14-29.452h0Z" transform="translate(0 73.286)" fill="#bdbdbd"/>
      <path id="Path_9" data-name="Path 9" d="M45.728,31.025,13.141,58.453l46.191-.6,45.757.259L72.931,31.021A21.11,21.11,0,0,0,45.728,31.025Z" transform="translate(20.24 71.767)" fill="#263238"/>
      <path id="Path_10" data-name="Path 10" d="M13.351,19c-1.055,3.9-.234,8.15,1.855,12.616A8.554,8.554,0,0,0,22.841,36.6c9.52-.034,18.291-6.079,26.675-15.22A1.429,1.429,0,0,0,48.457,19H13.351" transform="translate(19.429 48.805)" fill="#263238"/>
      <path id="Path_11" data-name="Path 11" d="M62.945,19c1.055,3.9.234,8.15-1.855,12.616A8.554,8.554,0,0,1,53.455,36.6c-9.52-.034-18.291-6.079-26.675-15.22A1.429,1.429,0,0,1,27.84,19H62.945" transform="translate(63.416 48.805)" fill="#263238"/>
      <path id="Path_12" data-name="Path 12" d="M31.507,26.5A21.069,21.069,0,0,0,23,26.5V51.3h8.507Z" transform="translate(52.317 71.802)" fill="#455a64"/>
      <path id="Path_13" data-name="Path 13" d="M26.665,27.674,19,34.131V47.985h8.507v-20.9C27.235,27.3,26.933,27.449,26.665,27.674Z" transform="translate(39.303 75.117)" fill="#455a64"/>
      <path id="Path_14" data-name="Path 14" d="M35.507,34.131l-7.665-6.457c-.268-.225-.566-.379-.842-.587v20.9h8.507Z" transform="translate(65.332 75.117)" fill="#455a64"/>
      <path id="Path_15" data-name="Path 15" d="M130.693,53.8,81.1,30.831a19.741,19.741,0,0,0-16.6,0L14.917,53.8A11.863,11.863,0,0,0,9,64.163a27.6,27.6,0,0,0,15.636,25.1c14.139,6.627,28.98,2.212,32.281-1.995,1.876-2.391,5.275-2.948,8.29-2.948H80.4c3.016,0,6.415.553,8.29,2.948,3.3,4.207,18.142,8.622,32.281,1.995a27.6,27.6,0,0,0,15.636-25.1A11.863,11.863,0,0,0,130.693,53.8Z" transform="translate(6.766 81.348)" fill="#e0e0e0"/>
      <path id="Path_16" data-name="Path 16" d="M53.183,39.582h0A17.366,17.366,0,0,1,33.148,49.8c-6.933-1.765-14.918-1.91-19.635,4.266a7.861,7.861,0,0,0-1.536,5.577,10,10,0,0,0,6.946,8.388c11.97,3.981,23.646.812,27.645-2.727,2.186-1.935,6.142-3.756,9.065-3.756h7.6V36H58.619A5.909,5.909,0,0,0,53.183,39.582Z" transform="translate(16.345 104.117)" fill="#bdbdbd"/>
      <path id="Path_17" data-name="Path 17" d="M47.917,45.953c-1.876-2.391-5.275-2.948-8.29-2.948H28.069c3.637,2.693,11.613,4.968,20.583,3.718A5.373,5.373,0,0,1,47.917,45.953Z" transform="translate(68.81 126.909)" fill="#f5f5f5"/>
      <path id="Path_18" data-name="Path 18" d="M47.917,45.953c-1.876-2.391-5.275-2.948-8.29-2.948H28.069c3.637,2.693,11.613,4.968,20.583,3.718A5.373,5.373,0,0,1,47.917,45.953Z" transform="translate(68.81 126.909)" fill="#f5f5f5"/>
      <path id="Path_19" data-name="Path 19" d="M33.986,39.582h0A17.366,17.366,0,0,0,54.021,49.8c6.933-1.765,14.918-1.91,19.635,4.266,1.68,2.2,1.952,4.96,1.1,7.9a8.719,8.719,0,0,1-5.372,5.662C57.024,72.216,44.726,68.953,40.6,65.3c-2.186-1.935-6.142-3.756-9.065-3.756h-7.6V36h4.611A5.9,5.9,0,0,1,33.986,39.582Z" transform="translate(55.386 104.117)" fill="#bdbdbd"/>
      <path id="Path_20" data-name="Path 20" d="M25.127,66.776h0A2.128,2.128,0,0,1,23,64.649V39.127A2.128,2.128,0,0,1,25.127,37h0a2.128,2.128,0,0,1,2.127,2.127V64.649A2.128,2.128,0,0,1,25.127,66.776Z" transform="translate(52.317 107.371)" fill="#263238"/>
      <path id="Path_21" data-name="Path 21" d="M24.454,59.268H23.8a1.8,1.8,0,0,1-1.8-1.8V39.8A1.8,1.8,0,0,1,23.8,38h.659a1.8,1.8,0,0,1,1.8,1.8V57.473A1.8,1.8,0,0,1,24.454,59.268Z" transform="translate(49.064 110.625)" fill="#263238"/>
      <path id="Path_22" data-name="Path 22" d="M23.127,51.761h0A2.128,2.128,0,0,1,21,49.634V41.127A2.128,2.128,0,0,1,23.127,39h0a2.128,2.128,0,0,1,2.127,2.127v8.507A2.128,2.128,0,0,1,23.127,51.761Z" transform="translate(45.81 113.878)" fill="#263238"/>
      <path id="Path_23" data-name="Path 23" d="M26.127,66.776h0a2.128,2.128,0,0,0,2.127-2.127V39.127A2.128,2.128,0,0,0,26.127,37h0A2.128,2.128,0,0,0,24,39.127V64.649A2.128,2.128,0,0,0,26.127,66.776Z" transform="translate(55.571 107.371)" fill="#263238"/>
      <path id="Path_24" data-name="Path 24" d="M26.8,59.268h.659a1.8,1.8,0,0,0,1.8-1.8V39.8a1.8,1.8,0,0,0-1.8-1.8H26.8A1.8,1.8,0,0,0,25,39.8V57.473A1.8,1.8,0,0,0,26.8,59.268Z" transform="translate(58.825 110.625)" fill="#263238"/>
      <path id="Path_25" data-name="Path 25" d="M28.127,51.761h0a2.128,2.128,0,0,0,2.127-2.127V41.127A2.128,2.128,0,0,0,28.127,39h0A2.128,2.128,0,0,0,26,41.127v8.507A2.128,2.128,0,0,0,28.127,51.761Z" transform="translate(62.078 113.878)" fill="#263238"/>
      <rect id="Rectangle_3" data-name="Rectangle 3" width="119.103" height="8.507" transform="translate(20.02 55.044)" fill="#263238"/>
      <path id="Path_26" data-name="Path 26" d="M14.526,39.158l2.016,12.6L22.923,47.5V39.639A25.956,25.956,0,0,0,14.526,39.158Z" transform="translate(24.746 113.882)" fill="#263238"/>
      <path id="Path_27" data-name="Path 27" d="M24.663,39.886a16.338,16.338,0,0,1-6.338-.336c-.6-.153-1.212-.272-1.825-.4v7.869l6.381,4.254Z" transform="translate(31.169 114.366)" fill="#263238"/>
      <ellipse id="Ellipse_1" data-name="Ellipse 1" cx="6.381" cy="4.254" rx="6.381" ry="4.254" transform="translate(41.288 161.386)" fill="#455a64"/>
      <path id="Path_28" data-name="Path 28" d="M39.838,39.158l-2.012,12.6L31.446,47.5V39.639A25.936,25.936,0,0,1,39.838,39.158Z" transform="translate(79.798 113.882)" fill="#263238"/>
      <path id="Path_29" data-name="Path 29" d="M29.526,39.886a16.338,16.338,0,0,0,6.338-.336c.6-.153,1.212-.272,1.825-.4v7.869l-6.381,4.254Z" transform="translate(73.551 114.366)" fill="#263238"/>
      <ellipse id="Ellipse_2" data-name="Ellipse 2" cx="6.381" cy="4.254" rx="6.381" ry="4.254" transform="translate(104.863 161.386)" fill="#455a64"/>
    </g>
    <g id="death-star-star-wars-svgrepo-com" transform="translate(1282.348 436.108)">
      <path id="Path_30" data-name="Path 30" d="M103.892,51.946A51.946,51.946,0,1,1,51.946,0,51.942,51.942,0,0,1,103.892,51.946Z" fill="#e6e9ed"/>
      <path id="Path_31" data-name="Path 31" d="M103.416,258.45a53.232,53.232,0,0,0,.476-7.083c0-.4-.006-.79-.013-1.179a9.512,9.512,0,0,1-2.4,3.1,35.133,35.133,0,0,1-10.767,6.081,87.727,87.727,0,0,1-17.26,4.477,134.439,134.439,0,0,1-21.5,1.668,134.361,134.361,0,0,1-21.5-1.668,87.5,87.5,0,0,1-17.26-4.477,35.129,35.129,0,0,1-10.767-6.081,9.541,9.541,0,0,1-2.41-3.1c-.007.39-.013.783-.013,1.179a52.194,52.194,0,0,0,.482,7.083C9.613,265.869,29.226,271,51.946,271S94.279,265.869,103.416,258.45Z" transform="translate(0 -199.421)" fill="#ccd1d9"/>
      <path id="Path_32" data-name="Path 32" d="M320.187,110.35c5.022,5.019,5.834,12.346,1.82,16.36s-11.338,3.2-16.36-1.82-5.834-12.343-1.82-16.36S315.171,105.327,320.187,110.35Z" transform="translate(-240.143 -84.475)" fill="#656d78"/>
    </g>
    <g id="icons8-darth-vader" transform="translate(1128.998 597)">
      <path id="Path_46" data-name="Path 46" d="M34.87,16h82.142l29.87,74.674v7.467s-17.97,14.935-29.87,14.935c-12.837,7.467-41.071,7.531-41.071,7.531s-29.638-1-41.071-7.531C29.5,113.077,5,103.507,5,98.142V90.674Z" transform="translate(2.734 35.538)" fill="#263238"/>
      <path id="Path_47" data-name="Path 47" d="M139.68,127.213c0-10.548-7.65-28.921-15.043-46.686-1.691-4.066-3.386-8.147-4.94-12.03-.075-.25-.146-.478-.224-.747-.011-.037-.022-.082-.034-.119-.149-.5-.306-1.045-.47-1.605-.052-.175-.1-.358-.157-.541-.146-.5-.295-1.027-.444-1.561-.041-.146-.082-.287-.123-.437q-.286-1.014-.575-2.091c-.041-.157-.086-.317-.127-.474-.157-.579-.314-1.169-.47-1.766-.056-.213-.112-.422-.164-.635q-.3-1.137-.582-2.3l-.034-.146c-.179-.721-.351-1.445-.523-2.169-.052-.224-.1-.444-.153-.668a89.276,89.276,0,0,1-2.072-11.9,4.828,4.828,0,0,0-.231-.978,23.327,23.327,0,0,0-.582-3.383A41.225,41.225,0,0,0,72.473,4H57.538A41.225,41.225,0,0,0,17.281,36.976a22.913,22.913,0,0,0-.582,3.383,4.828,4.828,0,0,0-.231.978A89.977,89.977,0,0,1,14.4,53.244c-.052.224-.1.444-.153.668-.172.724-.344,1.449-.523,2.169l-.034.146c-.19.773-.388,1.542-.582,2.3-.056.213-.112.422-.164.635-.157.6-.314,1.187-.47,1.766-.041.157-.086.317-.127.474-.194.717-.388,1.415-.575,2.091-.041.149-.082.291-.123.437-.153.538-.3,1.06-.444,1.561-.052.183-.1.362-.157.541-.161.56-.321,1.1-.47,1.605-.011.037-.022.082-.034.119-.164.556-.317,1.068-.463,1.546-.037.119-.071.235-.1.347-.116.381-.224.736-.321,1.053-.019.06-.037.123-.056.179-.112.358-.209.668-.291.933-.022.078-.041.134-.063.2-.06.194-.119.373-.157.489a.567.567,0,0,0-.022.075c-.037.1-.063.187-.063.187l8.285-1.437a48.919,48.919,0,0,1,2.58-6.254c5.474-11.287,12.822-12.217,16.608-12.53h2.4c9.024,0,18.669,3.734,18.669,3.734H72.473s9.958-3.734,18.669-3.734h2.4c3.786.314,10.671.933,16.608,12.53.388.754.754,1.579,1.116,2.419.224.579.474,1.195.706,1.788.254.672.515,1.318.758,2.05l.06.011c1.523,3.8,3.2,7.837,4.955,12.064,6.78,16.29,14.472,34.761,14.483,43.606-.019.123-2.677,15.088-37.968,20.6a132.606,132.606,0,0,1-29.25-1.732c-10.865-1.919-21.585-9.469-29.87-18.669,0,0-3.734,11.436-11.2,18.669,0,8.248,18.389,11.2,41.071,11.2,21.853,0,39.671-2.614,40.948-10.32,17.231-2.924,25.714-7.628,29.844-11.828C139.553,131.118,139.692,127.78,139.68,127.213Z" transform="translate(13.669 2.734)" fill="#455a64"/>
      <path id="Path_48" data-name="Path 48" d="M70.006,19A20.827,20.827,0,0,0,51.337,30.2l3.734,11.2c3.849,3.849,18.669,3.734,18.669,3.734s14.935.467,14.935-7.467S83.541,19,70.006,19ZM32.669,19C19.134,19,14,29.733,14,37.668s14.935,7.467,14.935,7.467S43.754,45.251,47.6,41.4l3.734-11.2A20.82,20.82,0,0,0,32.669,19ZM73.657,52.6H73.6a61.912,61.912,0,0,1-13-1.269c3.368,5.041,7.538,11.313,11.75,17.653,1.109,1.669,2.214,3.338,3.308,4.985,2.2-5.522,5.881-14.864,8.771-22.753A35.367,35.367,0,0,1,74.2,52.606C73.96,52.606,73.777,52.6,73.657,52.6ZM36.4,73.336v5.406h3.734V67.717q-1.775,2.671-3.588,5.4Zm29.87,5.406H69.86q-1.815-2.733-3.588-5.406Zm3.734.22v-.22H69.86C69.909,78.817,69.957,78.888,70.006,78.963Zm-26.136-.22H47.6V63.807H43.87ZM58.8,63.807V78.742h3.734V67.713c-.9-1.348-1.744-2.625-2.6-3.905H58.8ZM51.337,78.742h3.734V63.807H51.337Z" transform="translate(27.338 43.737)" fill="#546e7a"/>
      <path id="Path_49" data-name="Path 49" d="M22.792,19a21.671,21.671,0,0,0-5.179.612c12.874,2.823,19.632,14.894,20.114,18.067.594-.467,1.128-.881,1.676-1.311L41.46,30.2A20.82,20.82,0,0,0,22.792,19Zm37.337,0a22.721,22.721,0,0,0-3.233.25c10.678,4.764,13.781,21.51,14.33,25.147,3.767-.862,7.572-2.726,7.572-6.728C78.8,29.737,73.664,19,60.129,19Z" transform="translate(37.215 43.737)" fill="#455a64"/>
      <path id="Path_50" data-name="Path 50" d="M36.935,54.117H22V19.812l2.375,1.826c3.775,1.852,6.344,1.994,10.089.082l2.472-1.9Z" transform="translate(49.207 45.959)" fill="#78909c"/>
      <path id="Path_51" data-name="Path 51" d="M74.479,72.574c-.007-.019-.015-.049-.022-.075-.037-.116-.093-.3-.157-.489-.022-.067-.041-.127-.063-.2-.082-.261-.179-.575-.291-.933-.019-.056-.037-.123-.056-.179-.1-.317-.205-.676-.321-1.053-.034-.116-.071-.228-.1-.347-.146-.478-.3-.989-.463-1.546-.011-.037-.022-.082-.034-.119-.149-.5-.306-1.045-.47-1.605-.052-.175-.1-.358-.157-.541-.146-.5-.295-1.027-.444-1.561-.041-.146-.082-.287-.123-.437q-.286-1.014-.575-2.091c-.041-.157-.086-.317-.127-.474-.157-.579-.314-1.169-.47-1.766-.056-.213-.112-.422-.164-.635q-.3-1.137-.582-2.3l-.034-.146c-.179-.721-.351-1.445-.523-2.169-.052-.224-.1-.444-.153-.668a89.268,89.268,0,0,1-2.072-11.9,4.827,4.827,0,0,0-.231-.978,23.323,23.323,0,0,0-.582-3.383A41.225,41.225,0,0,0,26,4C38.93,8.029,51.139,16.1,54.776,27.108a5.263,5.263,0,0,1-5.153,6.739C36.6,33.776,37.694,33.706,26,37.6V56.272s9.958-3.734,18.669-3.734h2.4c3.786.314,10.981,1.243,16.608,12.53a45.957,45.957,0,0,1,2.58,6.254l8.285,1.441S74.512,72.674,74.479,72.574Z" transform="translate(60.142 2.734)" fill="#37474f"/>
      <path id="Path_52" data-name="Path 52" d="M23,22v3.734h7.467V22Zm0,11.2h7.467V29.467H23Z" transform="translate(51.941 51.941)" fill="#455a64"/>
      <path id="Path_53" data-name="Path 53" d="M20.734,55.87A3.734,3.734,0,1,0,24.467,59.6,3.735,3.735,0,0,0,20.734,55.87ZM43.136,26a7.489,7.489,0,0,0-7.467,7.467v7.467H50.6V33.467A7.489,7.489,0,0,0,43.136,26Zm22.4,29.87A3.734,3.734,0,1,0,69.272,59.6,3.735,3.735,0,0,0,65.538,55.87Z" transform="translate(35.539 62.876)" fill="#c5cae9"/>
      <path id="Path_54" data-name="Path 54" d="M82.409,3H74.941a3.735,3.735,0,0,0-3.734,3.734V59.006H86.142V6.734A3.735,3.735,0,0,0,82.409,3ZM47.6,36.581c6.187-.034,9.189-.063,11.892.329a3.705,3.705,0,0,0,4.249-3.674V14.582A3.061,3.061,0,0,0,59.207,11.9c-7.747,4.327-14.072,10.26-16.634,17.53A5.339,5.339,0,0,0,47.6,36.581Zm8.756,59.758c-.119,0-.3,0-.545,0a35.394,35.394,0,0,1-10.227-1.389c2.894,7.889,6.571,17.231,8.771,22.753,1.09-1.647,2.2-3.316,3.308-4.985,4.212-6.344,8.382-12.616,11.75-17.653a61.912,61.912,0,0,1-13,1.269ZM30.894,74.068l.06-.011c.344-1.031.713-1.953,1.083-2.875.131-.336.273-.691.4-1.023,7.423-17.19,19.774-14.931,20.1-14.886a49.44,49.44,0,0,1,11.2,1.486V48.3a3.735,3.735,0,0,0-3.3-3.711c-4.581-.512-7.9-.515-7.9-.515-18.669,0-23.4,7.184-24.307,11.2-1.348,5.974-3.077,12.041-4.245,15.954-1.553,3.887-3.248,7.968-4.94,12.034C11.651,101.025,4,119.4,4,129.947c-.011.568.127,3.905,3.883,7.721,4.133,4.2,12.613,8.9,29.847,11.828a4.913,4.913,0,0,1-.127-.881c.2-.19.385-.4.575-.6-24.65-6.534-26.707-18.176-26.722-18.284.011-8.845,7.7-27.312,14.483-43.6C27.7,81.9,29.371,77.872,30.894,74.068Z" transform="translate(0)" fill="#607d8b"/>
      <path id="Path_55" data-name="Path 55" d="M68.975,25.2c-.9-4.017-5.638-11.2-24.307-11.2A79.568,79.568,0,0,0,26,16.528V28.935S35.644,25.2,44.669,25.2c.347-.049,14-2.8,21.585,18.784l8.285,1.441S71.219,35.155,68.975,25.2Z" transform="translate(60.142 30.071)" fill="#455a64"/>
    </g>
  </g>
</svg>
