<svg xmlns="http://www.w3.org/2000/svg" width="88.965" height="38.073" viewBox="0 0 88.965 38.073">
  <path id="starwars-logo" d="M16.669,20.665l1.216,3.572a26.926,26.926,0,0,0,1.322,3.476h0c.084-.074,2.465-6.989,2.465-6.989h4.614L20.724,36.945H17.516s-3.423-9.887-3.409-9.925l-3.573,9.8H7.359l-5.5-16.155,4.592,0S8.969,27.8,9,27.8H9l2.51-7.133h5.156M.294,19.541.8,21.026,6.3,37.182l.259.761h4.764l.269-.738,2.481-6.8c.214.622.445,1.293.676,1.962q.855,2.477,1.711,4.951l.261.754h4.808l.26-.758,5.567-16.221.51-1.487H20.876l-.261.757q-.717,2.083-1.444,4.164-.112-.323-.223-.647L17.732,20.3l-.259-.761H10.718l-.264.75L8.988,24.46q-.74-2.082-1.475-4.165l-.264-.749H6.455l-4.592,0H.294ZM87.737,20.6l-.01,4.252s-4.58-.015-6.908-.015c-.775,0-1.3,0-1.325.006-.4.073-.657.926-.543,1.3a7.364,7.364,0,0,0,.93,1.376c.453.568,1.2,1.5,1.653,2.066,1.167,1.456,1.327,1.744,1.435,2.58a4.323,4.323,0,0,1-1.659,3.8c-1.2.972-1.143.979-10.015.979H70.9c-5.4,0-8.25-.046-8.665-.139-.738-.167-1.914-1.127-5.021-4.108-1.118-1.071-2.148-2.009-2.2-2.01,0,0,0,0,0,0l-.037,6.254-5.036-.022L49.91,20.793H61.143c3.385.122,5.676,3.495,5.22,5.646a6.36,6.36,0,0,1-.586,1.571A6.568,6.568,0,0,1,63.25,30.2c-.344.155-.624.336-.624.4a4.667,4.667,0,0,0,1.555,1.531c.362.151,1.416.185,6.063.185h1.488c4.671,0,4.436-.034,4.8-.805.253-.537.061-.858-1.717-2.861-2.252-2.241-2.016-3.314-2.032-4.107-.032-.95.716-3.938,4.6-3.938H87.737M57.562,28.055c2.156,0,2.594-.033,3.053-.233a1.95,1.95,0,0,0,.146-3.546c-.325-.194-.744-.226-3.081-.238l-2.7-.014c.022.021-.009,3.868-.009,3.868a13.088,13.088,0,0,0,2.6.163m31.3-8.575H77.382a5.731,5.731,0,0,0-4.3,1.633,5.105,5.105,0,0,0-1.426,3.455c0,.06,0,.121,0,.185-.01,1.169.162,2.491,2.337,4.664.43.484,1.149,1.3,1.421,1.7-.595.073-2.1.073-3.685.073H70.243c-2.793,0-5.147-.008-5.63-.1a2.7,2.7,0,0,1-.266-.21,7.6,7.6,0,0,0,2.4-2.3,7.481,7.481,0,0,0,.715-1.9A5.5,5.5,0,0,0,66.2,22.312a6.7,6.7,0,0,0-5.015-2.642h-12.4l0,1.125.031,16.132,0,1.115,1.115,0,5.036.022,1.12,0,.007-1.121.022-3.747.318.3c3.4,3.261,4.54,4.164,5.551,4.393.278.062.737.164,8.912.167h.39c4.426,0,6.648,0,7.969-.128a4.129,4.129,0,0,0,2.73-1.084l.024-.02a5.428,5.428,0,0,0,2.065-4.812c-.147-1.138-.448-1.611-1.673-3.138l-.364-.455-1.288-1.61c-.278-.349-.5-.658-.629-.861h.69c2.3,0,6.859.015,6.9.015l1.124,0,0-1.124L88.86,20.6l0-1.124ZM56.1,26.891l.005-.92c0-.281,0-.562,0-.819l1.57.008a22.231,22.231,0,0,1,2.524.087.947.947,0,0,1,.506.85.8.8,0,0,1-.536.694,8.693,8.693,0,0,1-2.605.14c-.625,0-1.106-.018-1.466-.041ZM39.7,20.536,45.358,36.8l-4.606.021-.765-2.443-8.236-.066-.727,2.446-4.56-.048,5.581-16.167,7.659-.007M36,22.92c-.012.047-.722,2-1.434,3.943-.718,1.964-1.439,3.928-1.449,3.944h0c.019-.006,2.57-.011,4.2-.011.765,0,1.329,0,1.34,0h0c-.029-.074-2.653-7.784-2.661-7.879h0m4.5-3.508h-.8l-7.659.007h-.8l-.261.756L25.4,36.344,24.9,37.816l1.558.016,4.56.048.846.009.241-.811.486-1.636,6.574.053.52,1.662.248.791.829,0,4.606-.021,1.571-.007-.516-1.483L40.765,20.169l-.262-.756Zm-5.77,10.262c.213-.579.5-1.362.888-2.426l.336-.918.3.9c.091.267.489,1.441.831,2.445ZM41.61,1.124V5.137H33.574V17.409H28.783V5.127l-9.38.027A1.184,1.184,0,0,0,18.12,6.4c0,.424.276.847,1.794,2.77a28.275,28.275,0,0,1,2.009,2.767A4.259,4.259,0,0,1,20.2,16.717c-1.093.675-.906.692-9.022.692H1.122V12.9H14.858l.405-.282a1.165,1.165,0,0,0,.492-.812c.084-.516.041-.584-1.656-2.494-2-2.259-2.217-2.671-2.113-4.113a4.395,4.395,0,0,1,4.15-4.037L41.61,1.124M42.733,0,41.608,0,16.136.04A5.052,5.052,0,0,0,12.3,1.825a5.856,5.856,0,0,0-1.432,3.294c-.137,1.9.3,2.581,2.393,4.939.608.684,1.185,1.335,1.378,1.611a.18.18,0,0,1-.008.022l-.01.007-.115.08H0v6.753H11.177c4,0,5.977,0,7.14-.089a4.251,4.251,0,0,0,2.393-.721l.079-.049a5.386,5.386,0,0,0,2.164-6.183A29.922,29.922,0,0,0,20.8,8.474a20.676,20.676,0,0,1-1.551-2.11.371.371,0,0,1,.017-.074.577.577,0,0,1,.14-.014l8.258-.023V18.531H34.7V6.259h8.036V0ZM54.667,1.254,60.3,17.56l-4.6-.025-.746-2.443-8.2-.036-.733,2.353H41.347L46.922,1.254h7.745M48.1,11.583l5.584-.007h0c.019,0-2.714-8.025-2.732-8.031s-2.915,8.038-2.852,8.038M55.466.132H46.122l-.261.756L40.286,17.043l-.514,1.488h7.083l.246-.789.486-1.56,6.543.029.5,1.652.242.79.826,0,4.6.025,1.585.009-.518-1.5L55.729.888ZM49.658,10.459q.627-1.778,1.265-3.551.605,1.773,1.2,3.548l-2.47,0ZM70.5,1.254c3.637,0,6.161.052,6.646.136a4.822,4.822,0,0,1,2.9,1.715,3.883,3.883,0,0,1,1.082,2.741,4.681,4.681,0,0,1-2.483,4.511c-.509.3-1.032.6-1.163.659-.2.091-.174.178.185.6a7.337,7.337,0,0,0,.891.857l.471.366,8.71.125.085,4.445H82.48c-4.13,0-5.452-.038-5.839-.168-.579-.2-1.973-1.378-4.808-4.074L69.81,11.241l.021,6.168h-5.2V1.254H70.5m-.766,7.263h2.76c2.685,0,2.77-.009,3.153-.3A1.862,1.862,0,0,0,76.5,6.367a1.714,1.714,0,0,0-1.207-1.625c-.456-.2-.9-.231-3.047-.231H69.734V8.518M70.5.132H63.512v18.4h7.446l0-1.126-.013-3.538.118.112c3.505,3.335,4.539,4.093,5.222,4.324.524.177,1.4.228,6.2.228h6.484l-.022-1.144-.085-4.445-.02-1.085-1.085-.016-8.334-.119-.175-.136c-.056-.043-.123-.1-.195-.166l.169-.1a5.818,5.818,0,0,0,3.026-5.563A4.981,4.981,0,0,0,80.908,2.39,5.981,5.981,0,0,0,77.338.285C76.572.152,72.725.132,70.5.132Zm.357,5.5h1.39a8.736,8.736,0,0,1,2.6.138c.456.2.5.293.538.7a.771.771,0,0,1-.41.857l-.031.023c-.262.049-1.233.049-2.448.049H70.856V5.633Z" fill="#fff"/>
</svg>
